<svg width="17" height="18" viewBox="0 0 17 18" fill="none" xmlns="http://www.w3.org/2000/svg">
<path d="M16.1595 7.17838L9.24006 0.384602C9.23668 0.381531 9.2335 0.378223 9.23055 0.374701C8.97579 0.133601 8.6438 0 8.29945 0C7.95509 0 7.62311 0.133601 7.36835 0.374701L7.35884 0.384602L0.447169 7.17838C0.306184 7.31329 0.193644 7.47719 0.116672 7.6597C0.0396997 7.84221 -2.90988e-05 8.03936 1.59907e-08 8.23867V16.5599C1.59907e-08 16.9418 0.145802 17.3081 0.405332 17.5782C0.664862 17.8483 1.01686 18 1.38389 18H5.53556C5.90259 18 6.25459 17.8483 6.51412 17.5782C6.77365 17.3081 6.91945 16.9418 6.91945 16.5599V12.2395H9.68723V16.5599C9.68723 16.9418 9.83303 17.3081 10.0926 17.5782C10.3521 17.8483 10.7041 18 11.0711 18H15.2228C15.5898 18 15.9418 17.8483 16.2013 17.5782C16.4609 17.3081 16.6067 16.9418 16.6067 16.5599V8.23867C16.6067 8.03936 16.567 7.84221 16.49 7.6597C16.413 7.47719 16.3005 7.31329 16.1595 7.17838ZM15.2228 16.5599H11.0711V12.2395C11.0711 11.8576 10.9253 11.4913 10.6658 11.2212C10.4063 10.9511 10.0543 10.7994 9.68723 10.7994H6.91945C6.55242 10.7994 6.20042 10.9511 5.94089 11.2212C5.68136 11.4913 5.53556 11.8576 5.53556 12.2395V16.5599H1.38389V8.23867L1.3934 8.22967L8.30334 1.43859L15.2141 8.22787L15.2237 8.23687L15.2228 16.5599Z" fill="black"/>
</svg>
