<svg width="21" height="21" viewBox="0 0 21 21" fill="none" xmlns="http://www.w3.org/2000/svg">
<path d="M20.3978 19.7222C18.8972 16.9604 16.5847 14.9801 13.8859 14.0413C15.2209 13.1954 16.258 11.9063 16.8381 10.3721C17.4182 8.83786 17.5092 7.14335 17.0971 5.54877C16.685 3.95418 15.7926 2.54769 14.5569 1.54529C13.3212 0.542886 11.8106 0 10.2571 0C8.7035 0 7.19289 0.542886 5.95722 1.54529C4.72154 2.54769 3.82912 3.95418 3.41702 5.54877C3.00491 7.14335 3.09589 8.83786 3.676 10.3721C4.25611 11.9063 5.29326 13.1954 6.62818 14.0413C3.92943 14.9791 1.61692 16.9594 0.116302 19.7222C0.0612715 19.8177 0.0247702 19.924 0.00895168 20.0348C-0.00686684 20.1456 -0.00168218 20.2586 0.0241997 20.3672C0.0500817 20.4758 0.0961367 20.5778 0.159647 20.6672C0.223158 20.7565 0.302838 20.8314 0.393985 20.8875C0.485133 20.9435 0.585903 20.9796 0.690349 20.9935C0.794794 21.0074 0.9008 20.9989 1.00211 20.9685C1.10342 20.9381 1.19799 20.8864 1.28023 20.8165C1.36247 20.7465 1.43072 20.6598 1.48095 20.5613C3.33727 17.1461 6.61833 15.107 10.2571 15.107C13.8958 15.107 17.1769 17.1461 19.0332 20.5613C19.0834 20.6598 19.1517 20.7465 19.2339 20.8165C19.3161 20.8864 19.4107 20.9381 19.512 20.9685C19.6133 20.9989 19.7193 21.0074 19.8238 20.9935C19.9282 20.9796 20.029 20.9435 20.1201 20.8875C20.2113 20.8314 20.291 20.7565 20.3545 20.6672C20.418 20.5778 20.464 20.4758 20.4899 20.3672C20.5158 20.2586 20.521 20.1456 20.5052 20.0348C20.4894 19.924 20.4529 19.8177 20.3978 19.7222ZM4.73935 7.55494C4.73935 6.3932 5.06296 5.25756 5.66926 4.29161C6.27555 3.32566 7.1373 2.57279 8.14553 2.12821C9.15376 1.68364 10.2632 1.56732 11.3335 1.79396C12.4038 2.0206 13.387 2.58003 14.1587 3.4015C14.9303 4.22298 15.4559 5.26959 15.6688 6.40901C15.8817 7.54842 15.7724 8.72946 15.3548 9.80276C14.9371 10.8761 14.2299 11.7934 13.3225 12.4389C12.4152 13.0843 11.3484 13.4288 10.2571 13.4288C8.79416 13.4271 7.39162 12.8077 6.35718 11.7065C5.32275 10.6053 4.74092 9.11227 4.73935 7.55494Z" fill="black"/>
</svg>
